# xmcd
#
# Track frame offsets:
#       150
#       11699
#       25911
#       37933
#       46227
#       58774
#       66693
#       77627
#       87766
#       97628
#       107857
#       118559
#
# Disc length: 1711 seconds
#
# Revision: 1
# Processed by: cddbd v1.5.2PL0 Copyright (c) Steve Scherf et al.
# Submitted via: FreeDbEdit v0.1
#
DISCID=9006ad0c
DTITLE=Roger Miller - King of the Road
DYEAR=1900
DGENRE=
TTITLE0=Walkin' in the Sunshine
TTITLE1=Green Green Grass of Home
TTITLE2=Our Little Love
TTITLE3=My Uncle Used to Love Me but She Died
TTITLE4=The Last Word in Lonesome Is Me
TTITLE5=Home
TTITLE6=King of the Road
TTITLE7=I'll Pick Up My Heart
TTITLE8=Love Is Not for Me
TTITLE9=Engine, Engine No. 9
TTITLE10=Husbands and Wives
TTITLE11=The Good Old Days
EXTD=
EXTT0=
EXTT1=
EXTT2=
EXTT3=
EXTT4=
EXTT5=
EXTT6=
EXTT7=
EXTT8=
EXTT9=
EXTT10=
EXTT11=
PLAYORDER=
